Coordinates
version=1
nRows=16
nColumns=36
inDegrees=yes

Units are S.I. units (second, meters, Newtons, ...)
If the header above contains a line with 'inDegrees', this indicates whether rotational values are in degrees (yes) or radians (no).

endheader
time	pelvis_tilt	pelvis_list	pelvis_rotation	pelvis_tx	pelvis_ty	pelvis_tz	hip_flexion_r	hip_adduction_r	hip_rotation_r	knee_angle_r	knee_angle_r_beta	ankle_angle_r	subtalar_angle_r	mtp_angle_r	hip_flexion_l	hip_adduction_l	hip_rotation_l	knee_angle_l	knee_angle_l_beta	ankle_angle_l	subtalar_angle_l	mtp_angle_l	lumbar_extension	lumbar_bending	lumbar_rotation	arm_flex_r	arm_add_r	arm_rot_r	elbow_flex_r	pro_sup_r	arm_flex_l	arm_add_l	arm_rot_l	elbow_flex_l	pro_sup_l
      2.40000000	     -8.52523929	      4.16561207	    -12.25634049	      0.73801709	      0.99380115	      0.03407710	     41.27953607	    -12.40147276	      0.35815674	     27.55054522	      0.48084772	    -11.50834760	     -1.14048569	     -7.49999987	     40.37159581	     -7.08744154	     -2.09557759	     27.46644358	      0.47937987	     -8.04611786	     -7.20346173	     -7.49999987	    -24.91689055	      0.94465213	     -2.49182079	    -17.70850694	    -21.51664675	      9.65211726	     55.16825949	     77.70556188	    -35.47842987	    -23.00471393	    -25.23313297	     92.68999694	     95.69915358
      2.41666670	     -8.52260691	      4.57114881	    -12.84503796	      0.76779342	      0.96058605	      0.03632631	     45.62754521	    -12.57676217	      2.06537943	     37.04484355	      0.64655449	     -4.53180969	     -3.76767799	     -7.49999987	     44.29428909	     -6.84557208	     -1.14240358	     35.97700898	      0.62791726	     -2.16359563	     -9.98169833	     -7.49999987	    -25.50846391	      1.23280257	     -2.57293051	    -11.14967528	    -19.42129707	      8.58016344	     50.18855335	     75.58677388	    -27.95167692	    -20.03457387	    -20.93929101	     83.69533180	     91.28600335
      2.43333330	     -8.66483749	      5.46206937	    -13.00606440	      0.76568810	      0.92872900	      0.03601264	     51.65716510	    -13.08863144	      4.31850074	     48.24269086	      0.84199380	      1.90990845	     -5.77834216	     -7.49999987	     49.79040684	     -6.51172004	     -1.37596221	     45.87500243	      0.80066984	      3.65841807	    -11.03143586	     -7.49999987	    -27.71051417	      0.92502379	     -0.15154184	     -5.34984518	    -17.93127349	      4.06545293	     47.24304568	     75.71756042	    -16.24277256	    -20.63099767	    -11.35835788	     76.13087509	     90.17910222
      2.45000000	     -8.65373911	      6.06602736	    -12.88356466	      0.78121784	      0.89758350	      0.04061200	     56.99568023	    -13.33304629	      6.34655137	     58.85286416	      1.02717625	      7.92615645	     -7.41641442	     -7.49999987	     54.56035850	     -6.30035810	     -1.08349192	     55.48267840	      0.96835542	      9.69206995	    -11.61686115	     -7.49999987	    -30.79771397	      0.37728702	      1.29639216	      0.79181742	    -16.76079343	      0.91090351	     44.39276212	     75.22907422	     -5.66635066	    -19.32778899	     -4.85386139	     71.32514799	     88.41201988
      2.46666670	     -9.01529374	      6.47483655	    -12.77009579	      0.78047425	      0.88415796	      0.04129075	     61.08201996	    -13.40922776	      7.51920545	     66.10203752	      1.15369820	     11.68696854	     -8.30715051	     -7.49999987	     58.28534874	     -6.36058017	     -0.99648620	     62.37136219	      1.08858563	     13.77824104	    -11.51470396	     -7.49999987	    -35.49610682	      0.02269927	      2.88749714	      9.29142519	    -17.07466714	     -1.96979060	     44.73100502	     76.10893327	      6.84234947	    -17.85745067	      2.58687266	     67.59395122	     87.95796923
      2.48333330	    -10.87374258	      7.00377458	    -12.24805905	      0.78136712	      0.86243399	      0.04111608	     65.85244470	    -13.51581392	      8.27861443	     71.34102401	      1.24513576	     14.45031479	     -8.59990878	     -7.49999987	     62.92011461	     -6.32158274	     -0.71332276	     67.67345866	      1.18112467	     16.66267679	    -11.07627264	     -7.49999987	    -39.32090748	      0.05036002	      2.20674032	     19.07702110	    -17.83942055	     -1.77034688	     48.16247719	     76.80903306	     16.72362903	    -16.95056449	      4.75127812	     70.42136890	     88.49972180
      2.50000000	    -13.35788362	      7.84946443	    -11.82448599	      0.79215975	      0.82907626	      0.03492010	     71.47139840	    -13.86959077	      9.34629223	     76.35086652	      1.33257401	     17.11640412	     -8.36922679	     -7.49999987	     68.20798222	     -6.13371055	     -0.50277428	     72.90186924	      1.27237765	     19.13481557	    -11.22288704	     -7.49999987	    -40.83562931	     -0.13330648	      2.84588665	     24.42273847	    -19.79033479	     -3.81699211	     55.01442885	     84.09024351	     24.95154836	    -15.61485672	      8.45159426	     74.15138631	     88.99213126
      2.51666670	    -16.51134530	      8.28841506	    -11.03537964	      0.79211249	      0.80415414	      0.03936651	     77.20798213	    -14.22159290	      9.68261701	     80.42904505	      1.40375165	     19.17311222	     -8.05525579	     -7.49999987	     74.07982017	     -6.05685833	      0.26000508	     77.46721900	      1.35205803	     21.79761310	    -10.68625419	     -7.49999987	    -40.63393440	      0.45349214	      1.63335581	     32.84720440	    -20.41631354	     -2.43268722	     60.38373593	     86.35337041	     33.80251524	    -16.20086387	     11.24804039	     77.97624695	     91.09223453
      2.53333330	    -19.09005962	      8.61063611	    -10.15450932	      0.78948977	      0.79969975	      0.03573271	     81.21777316	    -14.72347641	      9.86316141	     82.50478935	      1.43998022	     20.00302924	     -8.11953333	     -7.49999987	     78.28240541	     -5.78310586	      0.61696638	     79.89844554	      1.39449094	     22.88289769	    -10.46060664	     -7.49999987	    -41.77144116	      0.81939438	      1.82654817	     41.46910944	    -22.73222804	     -0.70448111	     66.64565143	     93.76065825	     45.36216306	    -15.86461542	     16.08501518	     80.84703560	     91.30959950
      2.55000000	    -22.21908036	      8.72686429	     -9.37999507	      0.79097632	      0.78669542	      0.03497096	     85.29337571	    -15.46933922	      9.22398417	     83.73066592	      1.46137581	     21.09326658	     -7.40065484	     -7.49999987	     82.62108161	     -5.79720520	      1.03250612	     81.56742071	      1.42362005	     23.49225361	     -9.70771841	     -7.49999987	    -42.39769997	      1.70455284	      1.56748551	     50.69981108	    -23.85604162	      2.96413107	     72.25202497	     94.42842492	     54.28095172	    -15.84455598	     19.09556961	     83.55245584	     91.42553752
      2.56666670	    -25.24821993	      9.38031814	     -8.72188192	      0.76740373	      0.76374071	      0.01729510	     90.69798252	    -16.58987426	      8.95671452	     85.05309870	      1.48445661	     21.28237987	     -6.33050072	     -7.49999987	     87.56050968	     -5.68097554	      0.49933423	     83.23108285	      1.45265644	     22.88858541	     -9.32407242	     -7.49999987	    -42.40694551	      2.44276631	      1.08831576	     61.45562577	    -26.04419787	      8.80576097	     76.09710846	     97.67269794	     66.26935316	    -16.31542819	     24.12334851	     85.12739545	     93.41907089
      2.58333330	    -27.84512542	      9.90392278	     -8.09813911	      0.77155708	      0.74779522	      0.01146221	     95.76109475	    -17.87920046	      8.73113599	     86.74554216	      1.51399532	     21.95424706	     -4.84708219	     -7.49999987	     92.17666023	     -5.48598242	      0.10894026	     85.18651427	      1.48678515	     22.83880724	     -8.64858482	     -7.49999987	    -42.00347709	      3.20959849	      0.68247657	     69.46789508	    -26.97214544	     13.70816533	     79.55234851	     98.62979291	     74.35261835	    -15.44294050	     27.10881137	     85.46105145	     94.00941939
      2.60000000	    -29.57079825	     10.10064916	     -7.89962156	      0.78150838	      0.73674090	      0.01039662	     99.14838613	    -18.90604241	      8.28619869	     88.18007750	      1.53903269	     22.59219772	     -3.90531955	     -7.49999987	     95.15953850	     -5.66701281	     -0.08712491	     86.63716628	      1.51210381	     23.41377198	     -7.81102445	     -7.49999987	    -42.36394424	      3.79373995	      0.87570991	     75.97351506	    -27.71795953	     17.91934657	     83.56155854	     99.37912899	     79.95266510	    -14.22474496	     28.40971834	     86.36175933	     94.92561056
      2.61666670	    -31.29603644	     10.17802772	     -7.74117574	      0.77471588	      0.72352893	      0.01745813	    102.25608923	    -19.52697867	      7.69466030	     89.49216488	      1.56193293	     23.18979880	     -3.35479168	     -7.49999987	     97.94988391	     -6.18789725	     -0.16065640	     87.73700023	      1.53129953	     24.19384191	     -6.70760906	     -7.49999987	    -42.36819627	      4.09443977	      1.05524845	     82.17548883	    -27.57235759	     20.45223613	     87.24917327	    101.16772914	     85.51096894	    -13.95574618	     29.44321322	     87.08771854	     97.22127155
      2.63333330	    -32.89963454	     10.01746434	     -7.69674194	      0.75432525	      0.71505231	      0.02932652	    104.84647066	    -19.63867962	      6.56198921	     90.33838430	      1.57670225	     23.45447447	     -3.16416559	     -7.49999987	    100.70318497	     -7.11148384	     -0.00782951	     88.35539183	      1.54209250	     24.25398912	     -6.19140977	     -7.49999987	    -42.40830400	      3.97007385	      1.14071566	     90.00977719	    -26.11660566	     24.74389813	     87.00643079	     99.16864045	     91.73025530	    -14.56981390	     30.86253377	     87.12699741	     97.59950212
      2.65000000	    -34.62650058	     10.19994723	     -8.07946965	      0.78914395	      0.70481518	      0.03301045	    106.88760500	    -19.46139285	      5.41291145	     91.05517773	      1.58921265	     24.39722372	     -3.07574016	     -7.49999987	    102.90626788	     -8.37091456	      0.00053471	     89.12693158	      1.55555841	     25.16717110	     -5.27947609	     -7.49999987	    -41.38452254	      3.19681798	      1.30752959	     90.42969026	    -25.77289004	     25.50099726	     91.70989521	     98.99540518	     91.83305071	    -14.32406461	     29.99332683	     90.73558827	     98.16387558
